HIERARCHY
ROOT Bip001_Pelvis
{
  OFFSET 34.4345 95.6767 -26.8758
  CHANNELS 6 Xposition Yposition Zposition Zrotation Xrotation Yrotation
  JOINT Bip001_Spine
  {
    OFFSET 1.4188e-005 10.2191 -0.0116013
    CHANNELS 3 Zrotation Xrotation Yrotation
    JOINT Bip001_L_Thigh
    {
      OFFSET 11.0458 -10.2192 0.0116197
      CHANNELS 3 Zrotation Xrotation Yrotation
      JOINT Bip001_L_Calf
      {
        OFFSET -0.707118 -44.0221 0.360014
        CHANNELS 3 Zrotation Xrotation Yrotation
        JOINT Bip001_L_Foot
        {
          OFFSET -0.651902 -40.5938 -3.56146
          CHANNELS 3 Zrotation Xrotation Yrotation
          JOINT Bip001_L_Toe0
          {
            OFFSET 0.0530839 -10.2181 13.1504
            CHANNELS 3 Zrotation Xrotation Yrotation
            End Site
            {
              OFFSET -1.02532e-005 0 7.55606
            }
          }
        }
      }
    }
    JOINT Bip001_R_Thigh
    {
      OFFSET -11.0458 -10.2191 0.0115893
      CHANNELS 3 Zrotation Xrotation Yrotation
      JOINT Bip001_R_Calf
      {
        OFFSET 0.706994 -44.0221 0.35984
        CHANNELS 3 Zrotation Xrotation Yrotation
        JOINT Bip001_R_Foot
        {
          OFFSET 0.651786 -40.5938 -3.5613
          CHANNELS 3 Zrotation Xrotation Yrotation
          JOINT Bip001_R_Toe0
          {
            OFFSET -0.0531479 -10.2181 13.1504
            CHANNELS 3 Zrotation Xrotation Yrotation
            End Site
            {
              OFFSET -1.02894e-005 0 7.55606
            }
          }
        }
      }
    }
    JOINT Bip001_Spine1
    {
      OFFSET 1.87041e-005 14.5736 1.08638
      CHANNELS 3 Zrotation Xrotation Yrotation
      JOINT Bip001_Spine2
      {
        OFFSET 2.24614e-005 14.5058 -1.69078
        CHANNELS 3 Zrotation Xrotation Yrotation
        JOINT Bip001_Neck
        {
          OFFSET 2.20278e-005 15.3945 -0.489414
          CHANNELS 3 Zrotation Xrotation Yrotation
          JOINT Bip001_L_Clavicle
          {
            OFFSET 6.06036 -0.000579998 0.00836775
            CHANNELS 3 Zrotation Xrotation Yrotation
            JOINT Bip001_L_UpperArm
            {
              OFFSET 11.5509 -0.0600302 0.00193952
              CHANNELS 3 Zrotation Xrotation Yrotation
              JOINT Bip001_L_Forearm
              {
                OFFSET 25.9523 0.0806089 -2.15551
                CHANNELS 3 Zrotation Xrotation Yrotation
                JOINT Bip001_L_Hand
                {
                  OFFSET 32.2475 0.153767 1.63968
                  CHANNELS 3 Zrotation Xrotation Yrotation
                  JOINT Bip001_L_Finger0
                  {
                    OFFSET 6.04639 -2.20976 5.90322
                    CHANNELS 3 Zrotation Xrotation Yrotation
                    End Site
                    {
                      OFFSET 4.22375 -1.43895 0.606485
                    }
                  }
                  JOINT Bip001_L_Finger1
                  {
                    OFFSET 11.0826 -0.704819 -0.198153
                    CHANNELS 3 Zrotation Xrotation Yrotation
                    End Site
                    {
                      OFFSET 6.20027 -0.397518 -0.0787166
                    }
                  }
                }
              }
            }
          }
          JOINT Bip001_R_Clavicle
          {
            OFFSET -6.06037 -0.000563197 0.00835105
            CHANNELS 3 Zrotation Xrotation Yrotation
            JOINT Bip001_R_UpperArm
            {
              OFFSET -11.5509 -0.0599978 0.00190698
              CHANNELS 3 Zrotation Xrotation Yrotation
              JOINT Bip001_R_Forearm
              {
                OFFSET -25.9523 0.0806822 -2.15589
                CHANNELS 3 Zrotation Xrotation Yrotation
                JOINT Bip001_R_Hand
                {
                  OFFSET -32.2475 0.153859 1.63989
                  CHANNELS 3 Zrotation Xrotation Yrotation
                  JOINT Bip001_R_Finger0
                  {
                    OFFSET -6.04641 -2.20976 5.90317
                    CHANNELS 3 Zrotation Xrotation Yrotation
                    End Site
                    {
                      OFFSET -4.22376 -1.43895 0.60647
                    }
                  }
                  JOINT Bip001_R_Finger1
                  {
                    OFFSET -11.0826 -0.704794 -0.198182
                    CHANNELS 3 Zrotation Xrotation Yrotation
                    End Site
                    {
                      OFFSET -6.20028 -0.397504 -0.0787333
                    }
                  }
                }
              }
            }
          }
          JOINT Bip001_Head
          {
            OFFSET 1.09673e-005 11.2744 2.05948
            CHANNELS 3 Zrotation Xrotation Yrotation
            End Site
            {
              OFFSET 2.89576e-005 20.8808 -2.77728e-005
            }
          }
        }
      }
    }
  }
}
MOTION
Frames:	12
Frame Time:	0.04
32.0803 91.4843 -27.6321 -5.91441 -7.18534 14.3452 0.0579242 1.93401 0.82871 17.9482 -13.4624 10.1419 0.706519 38.9186 -15.8504 4.71606 -18.888 0.575701 1.50596 -5.1202 -0.904522 3.10649 -1.24527 -0.261551 6.20584 25.5846 -1.69693 -15.9 -11.97 -18.1432 4.07769 -12.6883 3.80937 0.0946375 3.86808 1.65727 0.0877832 3.86819 1.65695 6.68873 -12.7918 -4.02047 -30.5372 12.9573 0.0173732 -45.9162 38.2624 2.84267 20.5288 2.09641 -36.0708 5.87839 2.40477 -5.36045 0 9.54166e-015 -0 5.29669e-031 9.54167e-015 -3.18055e-015 -7.3209 13.6421 17.6175 51.5426 -53.9604 66.0848 -44.8322 6.10295 69.1357 -10.0058 -3.09609 0.632066 1.59028e-015 3.18055e-015 -1.59028e-015 -1.59028e-015 3.18056e-015 -2.38542e-015 -3.91083 -4.56172 -1.88881 
32.2813 92.4276 -27.7802 -5.21363 -6.17116 15.8995 -0.495048 1.8535 1.72398 16.6172 -13.2862 8.84846 1.18299 35.0215 -16.863 3.69935 -17.0413 0.402705 1.26091 -4.80314 -0.784143 3.55828 -0.0859416 -1.64028 4.4648 21.4517 -1.36604 -14.6754 -10.0133 -18.1414 3.95471 -12.3468 3.67717 -1.01167 3.69368 3.45844 -1.02845 3.69553 3.46091 7.02003 -14.9475 -6.55467 -31.5186 13.9368 1.64448 -42.5578 37.8788 0.921678 19.51 2.92276 -34.8567 5.42723 2.40486 -4.9433 3.18055e-015 6.36111e-015 3.18055e-015 3.18055e-015 3.18056e-015 6.36111e-015 -13.1125 14.169 24.0112 29.0364 -46.4704 53.834 -41.4699 2.91977 49.4636 -9.55024 -1.8996 0.323052 1.59028e-015 -3.18055e-015 7.95139e-016 3.18055e-015 3.18056e-015 2.38542e-015 -3.75961 -3.35578 -4.30572 
32.228 93.3128 -28.1121 -5.7016 -4.6243 17.3411 -0.534657 1.62881 2.48951 16.0153 -14.0145 7.05923 0.829827 31.4968 -17.0167 3.84652 -14.6053 0.328248 1.29122 -5.17835 -0.821737 4.52921 0.85553 -2.83628 2.93346 15.9158 -1.31151 -13.4707 -7.48269 -18.02 3.7704 -11.8487 3.50979 -1.11946 3.23283 4.99638 -1.12854 3.23244 4.99574 6.0147 -18.1945 -8.71121 -34.1965 15.5102 5.44719 -38.0776 37.8432 -0.629815 19.1047 3.04138 -35.0595 4.62108 2.57337 -5.11963 1.76556e-031 -3.18055e-015 3.18055e-015 -0 0 6.36111e-015 -19.3058 14.6589 30.3568 13.6864 -39.667 46.8554 -33.7581 -0.741906 32.2389 -9.0682 -1.65728 -0.467005 6.36111e-015 3.18055e-015 -0 3.18055e-015 3.18056e-015 1.59028e-015 -3.77922 -0.788448 -6.53439 
32.1623 94.1099 -28.4967 -6.42842 -2.51811 18.8571 -0.663858 1.2092 3.21035 15.6716 -15.2682 6.28339 0.91097 28.2622 -17.9061 2.14954 -13.3204 0.174689 0.850008 -4.3708 -0.633734 5.24516 1.50356 -3.92984 2.15873 10.0801 -1.48465 -12.3495 -4.73564 -17.966 3.5839 -11.3704 3.39046 -1.39486 2.37921 6.43658 -1.39487 2.37922 6.4366 6.27399 -20.6167 -10.9469 -36.9775 15.9136 8.84899 -34.9842 38.4192 -1.19713 18.9002 2.49229 -35.3242 4.91763 1.83584 -5.1114 -3.18055e-015 -6.36111e-015 3.18055e-015 -4.77083e-015 -6.36111e-015 3.18055e-015 -25.6879 13.481 36.5785 6.15792 -36.3215 44.1484 -28.419 3.9288 17.5086 -15.7573 -2.51204 -4.89109 1.32417e-031 -3.18055e-015 2.38542e-015 3.18055e-015 -3.18056e-015 1.59028e-015 -4.85077 1.59073 -8.30244 
32.081 94.6559 -28.7532 -6.70581 -0.438191 20.8883 -0.845679 0.95462 3.72485 14.8223 -16.5622 4.77821 0.48774 25.1031 -18.5294 2.37062 -10.9798 0.138816 0.9199 -4.76266 -0.730349 5.4282 1.68814 -5.33609 1.66181 5.58124 -1.529 -11.6343 -2.70027 -18.2638 3.40116 -10.7939 3.12388 -1.77356 1.85104 7.47382 -1.76438 1.85206 7.47074 6.24049 -22.3752 -13.1237 -38.3702 15.9845 11.5122 -32.8489 38.7097 -2.39087 18.7018 1.68306 -35.6663 5.87548 1.84714 -4.96479 1.59028e-015 -3.18055e-015 -0 -0 0 3.18055e-015 -29.6136 12.1003 42.1526 18.4438 -52.2976 55.1623 -41.2588 16.64 13.9998 8.63644 -9.02123 -6.57534 -3.18055e-015 3.18055e-015 -0 -6.36111e-015 0 -1.59028e-015 -5.30057 3.43534 -10.1533 
31.9979 94.9344 -28.7513 -6.98461 -0.0121756 23.6091 -0.722585 0.9449 4.02081 14.273 -17.328 2.98016 0.213067 23.4746 -19.4893 2.13809 -9.92944 0.109989 0.851179 -4.69908 -0.687824 6.05645 2.74524 -7.21123 1.09615 2.35438 -1.53895 -11.3099 -1.16283 -18.6852 3.27715 -10.507 3.05947 -1.47646 1.83596 8.02672 -1.47987 1.83576 8.03859 7.65112 -22.8906 -15.2675 -40.2282 14.4554 13.78 -31.9254 38.8003 -3.97079 18.6863 2.25933 -36.028 5.62278 2.11207 -4.92567 3.18055e-015 0 -3.18055e-015 1.59028e-015 -3.18056e-015 -3.18055e-015 -34.6687 9.44968 39.104 44.2075 -62.6206 82.7606 -41.8248 29.1422 25.3466 5.50943 -3.05022 3.24969 2.64834e-031 -6.36111e-015 2.38542e-015 -8.82782e-032 -6.36111e-015 -7.95139e-016 -7.42268 3.44016 -11.4794 
32.0802 95.1418 -28.6081 -7.04884 -0.364004 27.0325 -0.583739 0.712228 3.77953 13.9028 -17.3499 2.05417 0.169778 22.4078 -21.2957 1.3596 -9.55494 0.0753389 0.786303 -4.05154 -0.77137 6.57157 3.66626 -8.27408 0.857573 1.85288 -1.99699 -11.1727 -0.675677 -19.7328 3.25703 -10.4771 3.09026 -1.2239 1.38254 7.5675 -1.23302 1.38391 7.56749 12.4609 -19.1311 -16.7897 -41.4671 9.11864 13.0485 -34.2975 38.8651 -2.48043 19.532 3.30589 -36.9675 4.23964 2.3519 -5.4095 -4.77083e-015 6.36111e-015 -3.18055e-015 -4.77083e-015 7.95139e-015 -3.18055e-015 -43.6052 1.70854 29.187 15.4567 -49.4075 59.7341 -42.8216 12.5888 20.0538 3.45457 1.77212 3.15174 1.98785e-015 3.18055e-015 1.61513e-015 1.19271e-015 3.18056e-015 1.56543e-015 -11.057 0.544605 -11.6078 
32.1409 95.3694 -28.4644 -6.34144 -0.270946 29.0138 -0.676525 0.681952 3.35511 13.7241 -16.4168 3.50865 -0.464466 20.2204 -23.4843 0.396271 -8.81075 0.0395571 0.665981 -3.3218 -0.863585 6.17399 4.13431 -6.97852 1.01826 1.84411 -2.08927 -11.4871 0.00749 -21.8178 3.35594 -10.6313 3.02702 -1.3885 1.32384 6.72374 -1.38852 1.32336 6.72122 16.9878 -17.0262 -18.1079 -43.8005 5.40383 12.0961 -35.9579 38.4458 -0.355254 19.087 2.88282 -36.6527 4.23277 2.29516 -5.10728 1.59028e-015 4.77083e-015 3.18055e-015 3.18055e-015 3.18056e-015 3.18055e-015 -46.6501 -1.90226 26.6475 15.6816 -47.6655 65.7335 -53.151 16.6716 27.3815 12.3903 -3.52383 -1.17748 -4.96962e-017 1.59028e-015 8.4732e-015 -8.72436e-032 1.59028e-015 3.14328e-015 -13.8661 -0.820029 -11.7381 
32.3992 95.5631 -28.4305 -4.8074 -0.183689 28.343 -0.802842 0.893613 3.35821 12.8286 -14.1735 5.029 -1.06745 17.4661 -23.8392 -0.334311 -7.97575 0.0226348 0.505156 -2.80705 -0.809598 4.64607 4.60631 -6.25339 1.2465 2.03221 -2.41601 -11.5272 0.273665 -21.6008 3.41335 -10.7775 3.04951 -1.65694 1.73856 6.72975 -1.65695 1.73857 6.72979 16.9927 -19.1159 -18.5862 -45.7719 6.24829 13.4937 -35.3136 38.2813 0.171768 19.1531 3.19333 -36.215 4.38884 2.20576 -4.7689 0 0 -0 3.18055e-015 -3.18056e-015 -0 -47.2625 -1.01694 29.07 36.1956 -48.4778 87.2676 -62.0744 19.6857 42.9272 17.6321 -5.19043 -0.78179 -4.08286e-031 -3.18055e-015 -7.35503e-015 1.59028e-015 -3.18056e-015 -5.56597e-015 -15.0189 1.30055 -11.7387 
32.4728 95.6046 -28.5023 -4.24774 -0.325332 27.242 -0.640941 0.919396 3.08518 12.441 -12.7823 5.05679 -1.65973 16.2016 -22.5722 0.75951 -6.85152 0.0326431 0.979675 -3.75416 -1.18162 3.86461 4.83824 -5.71896 1.27385 2.20187 -2.1942 -11.6004 0.263174 -21.2418 3.42598 -10.8249 3.08644 -1.331 1.80683 6.18159 -1.33109 1.80726 6.18158 14.439 -20.1535 -17.9307 -43.445 8.08921 15.477 -35.977 39.7781 -1.05456 19.6343 4.51603 -34.526 3.83859 1.55607 -5.31851 3.18055e-015 -6.36111e-015 -0 1.59028e-015 -6.36111e-015 -0 -44.836 1.23224 31.0291 48.3906 -40.0396 99.9096 -66.0073 16.3434 53.7574 18.2427 -3.99661 -1.26554 1.59028e-015 0 4.77083e-015 1.59028e-015 0 6.36111e-015 -13.4832 3.87243 -11.5251 
32.7204 95.5807 -28.735 -3.44786 -0.584248 26.5047 -0.507274 0.946347 2.77714 11.2521 -11.6923 3.04876 -1.69215 15.4769 -19.6736 1.31644 -6.15233 0.0371171 1.48008 -4.27252 -1.64526 2.72948 5.3479 -6.7871 1.42748 2.29623 -1.93595 -11.6731 -0.0953362 -19.7963 3.45069 -10.9512 3.17057 -1.06041 1.86685 5.5636 -1.06041 1.86627 5.5636 13.7215 -18.8529 -17.3887 -41.9146 7.79316 14.7917 -37.0539 41.9522 -1.79233 19.8127 4.70023 -32.4332 3.20628 1.98457 -5.08608 -7.95139e-015 3.18055e-015 -0 -6.36111e-015 0 -0 -41.3559 1.98176 32.4111 49.7793 -30.0668 100.122 -69.8449 12.065 62.4645 18.644 -5.37091 0.226218 4.77083e-015 -3.18055e-015 2.38542e-015 1.59028e-015 -6.36111e-015 4.77083e-015 -13.1264 3.84638 -11.0939 
32.9452 95.6121 -28.9489 -2.30285 -0.944544 25.2577 -0.3787 1.1437 2.56114 10.0861 -10.1742 2.16239 -1.81927 14.3566 -17.5377 0.817851 -5.93331 0.0381231 1.27999 -4.05576 -1.45755 1.27573 5.40586 -7.20515 1.41832 3.30219 -1.96957 -11.4055 -0.865897 -18.3569 3.45438 -10.9829 3.23277 -0.808392 2.26927 5.13129 -0.808393 2.26928 5.1313 13.5526 -16.7289 -16.8481 -41.9212 6.33622 13.1823 -37.2236 42.7628 -2.36271 20.0401 4.9295 -31.5183 3.34506 2.19114 -4.8147 -3.18055e-015 3.18055e-015 3.18055e-015 -1.59028e-015 3.18056e-015 -3.18055e-015 -36.8205 2.61656 33.2522 54.4028 -19.3676 97.2853 -72.9795 8.36542 75.8873 20.7743 -7.1388 1.89889 -4.77083e-015 0 -4.77083e-015 -7.95139e-015 0 -4.77083e-015 -13.2136 1.55961 -10.6943 
